<svg xmlns="http://www.w3.org/2000/svg" width="18" height="18" viewBox="0 0 18 18"><g><g><g/><g><path fill="#bcbfc2" d="M9 15.476c.415 0 .75.335.75.75v1.025c0 .415-.335.749-.75.749a.748.748 0 0 1-.75-.75v-1.024c0-.415.335-.75.75-.75zM9 2.524a.748.748 0 0 1-.75-.75V.75C8.25.334 8.586 0 9 0s.75.334.75.75v1.024c0 .415-.335.75-.75.75zm8.25 5.727c.416 0 .75.334.75.749s-.334.75-.75.75h-1.024a.748.748 0 0 1-.75-.75c0-.415.335-.75.75-.75zm-15.476 0c.415 0 .75.334.75.749s-.335.75-.75.75H.75A.748.748 0 0 1 0 9c0-.415.334-.75.75-.75zM14.64 4.423a.75.75 0 1 1-1.062-1.062l.724-.723a.75.75 0 0 1 1.061 0 .75.75 0 0 1 0 1.061zM3.36 13.577a.75.75 0 1 1 1.062 1.062l-.724.723a.75.75 0 0 1-1.061 0 .75.75 0 0 1 0-1.061zm12.001.724a.75.75 0 0 1 0 1.061.75.75 0 0 1-1.061 0l-.724-.723a.75.75 0 1 1 1.062-1.062zM2.638 3.699a.75.75 0 0 1 0-1.061.75.75 0 0 1 1.061 0l.724.723a.75.75 0 0 1 0 1.062.75.75 0 0 1-1.062 0zM9 3.361A5.647 5.647 0 0 1 14.639 9 5.645 5.645 0 0 1 9 14.639 5.645 5.645 0 0 1 3.361 9 5.645 5.645 0 0 1 9 3.361zm0 9.775A4.14 4.14 0 0 0 13.136 9 4.14 4.14 0 0 0 9 4.864 4.14 4.14 0 0 0 4.864 9 4.14 4.14 0 0 0 9 13.136z"/></g></g></g></svg>